<svg width="10" height="10" viewBox="0 0 10 10" fill="none" xmlns="http://www.w3.org/2000/svg">
<path d="M1.7875 0.037151C1.85116 0.0677507 1.90488 0.115702 1.94247 0.175484C1.98007 0.235265 2.00001 0.304446 2 0.375061C2 0.789951 2.156 1.02889 2.3515 1.31981L2.366 1.3408C2.532 1.58774 2.75 1.91115 2.75 2.37453C2.75 2.8474 2.5115 3.26429 2.148 3.51173C2.2435 3.59171 2.328 3.69018 2.401 3.80815C2.639 4.19305 2.75 4.78139 2.75 5.62616C2.75 6.48194 2.635 7.50966 2.4475 8.33044C2.3545 8.73834 2.239 9.11474 2.1015 9.39716C2.03658 9.53768 1.95059 9.66748 1.8465 9.78206C1.7435 9.88753 1.585 10 1.375 10C1.165 10 1.0065 9.88753 0.904 9.78206C0.799605 9.66771 0.713583 9.53787 0.649 9.39716C0.511001 9.11424 0.3955 8.73834 0.3025 8.32994C0.107474 7.44155 0.00608695 6.53518 4.81752e-07 5.62566C4.81752e-07 4.78089 0.111 4.19305 0.349 3.80815C0.416899 3.69642 0.502322 3.59634 0.602 3.51173C0.416387 3.38574 0.264469 3.21622 0.159526 3.01798C0.054584 2.81974 -0.000187403 2.59882 4.81752e-07 2.37453C4.81752e-07 2.19058 4.29153e-07 1.87416 0.1915 1.46577C0.379 1.06588 0.735501 0.6065 1.3905 0.0821391C1.4457 0.0379928 1.51227 0.0103455 1.58251 0.00238566C1.65275 -0.00557422 1.72381 0.00647747 1.7875 0.037151ZM0.75 2.37403C0.75 2.53975 0.815848 2.69917 0.933059 2.81635C1.05027 2.93353 1.20924 2.99936 1.375 2.99936C1.54076 2.99936 1.69973 2.93353 1.81694 2.81635C1.93415 2.69917 2 2.54025 2 2.37453C2 2.15509 1.9075 2.00313 1.729 1.7377L1.723 1.7287C1.6085 1.55875 1.473 1.3573 1.377 1.09887C1.1055 1.3748 0.9555 1.60373 0.871 1.78369C0.75 2.04162 0.75 2.22557 0.75 2.37403ZM0.987 4.20204C0.863 4.40299 0.75 4.81488 0.75 5.62616C0.75 6.42645 0.859 7.39819 1.0335 8.16349C1.1215 8.54839 1.2215 8.8608 1.323 9.06875C1.3415 9.10724 1.359 9.13923 1.375 9.16622C1.391 9.13923 1.4085 9.10724 1.427 9.06875C1.5285 8.8608 1.6285 8.54789 1.7165 8.16349C1.8915 7.39869 2 6.42695 2 5.62616C2 4.81488 1.887 4.40299 1.763 4.20204C1.7256 4.13439 1.66908 4.07927 1.6005 4.04358C1.52949 4.01267 1.45238 3.99831 1.375 4.0016C1.275 4.0016 1.2035 4.01709 1.1495 4.04358C1.08092 4.07927 1.0244 4.13439 0.987 4.20204ZM4 6.45744C3.7351 6.41302 3.47743 6.33298 3.234 6.21951C3.24863 5.936 3.2528 5.65205 3.2465 5.36823C3.472 5.51969 3.7265 5.63116 4 5.69315V4.24903C4 4.05017 4.07902 3.85946 4.21967 3.71884C4.36032 3.57823 4.55109 3.49923 4.75 3.49923H6.75C6.74998 3.07969 6.63259 2.66851 6.41111 2.31216C6.18962 1.95581 5.87287 1.66849 5.49663 1.48266C5.12039 1.29682 4.69966 1.21988 4.28198 1.26054C3.8643 1.30119 3.46632 1.45781 3.133 1.71271C3.033 1.43628 2.8905 1.22484 2.7915 1.07787L2.7715 1.04788C3.22073 0.731289 3.74832 0.544159 4.29668 0.50692C4.84505 0.469681 5.39311 0.583763 5.88103 0.836714C6.36896 1.08966 6.778 1.47176 7.0635 1.94129C7.34901 2.41083 7.5 2.94975 7.5 3.49923H9.25C9.44891 3.49923 9.63968 3.57823 9.78033 3.71884C9.92098 3.85946 10 4.05017 10 4.24903V8.74783C10 8.94669 9.92098 9.13741 9.78033 9.27802C9.63968 9.41864 9.44891 9.49763 9.25 9.49763H4.75C4.55109 9.49763 4.36032 9.41864 4.21967 9.27802C4.07902 9.13741 4 8.94669 4 8.74783V6.45744ZM4.75 6.48893V8.74833H9.25V4.24953H7.405C7.24922 4.85188 6.91005 5.39094 6.4344 5.79214C5.95875 6.19333 5.37014 6.43683 4.75 6.48893ZM6.622 4.24953H4.75V5.73563C5.1701 5.68855 5.56846 5.5242 5.89951 5.26139C6.23056 4.99858 6.48094 4.64792 6.622 4.24953Z" fill="white"/>
</svg>
