<svg width="120" height="120" viewBox="0 0 120 120" fill="none" xmlns="http://www.w3.org/2000/svg">
<path d="M64.4718 87.3562C65.1745 88.0594 65.5693 89.0129 65.5693 90.007C65.5693 91.0012 65.1745 91.9546 64.4718 92.6578L59.8124 97.3453C54.885 102.27 48.2032 105.035 41.237 105.033C34.2707 105.03 27.5907 102.261 22.6664 97.3336C17.742 92.4062 14.9768 85.7244 14.979 78.7581C14.9812 71.7919 17.7506 65.1118 22.6781 60.1875L33.9843 48.8812C38.7172 44.1446 45.0814 41.3956 51.7744 41.1969C58.4675 40.9983 64.9835 43.3649 69.989 47.8125C70.3584 48.14 70.6596 48.537 70.8755 48.9809C71.0914 49.4248 71.2177 49.9069 71.2473 50.3996C71.2769 50.8923 71.2092 51.3861 71.048 51.8526C70.8868 52.3192 70.6352 52.7494 70.3078 53.1187C69.9803 53.4881 69.5833 53.7893 69.1394 54.0052C68.6955 54.2211 68.2134 54.3475 67.7206 54.3771C67.2279 54.4067 66.7342 54.3389 66.2676 54.1777C65.8011 54.0165 65.3709 53.765 65.0015 53.4375C61.4264 50.2627 56.7735 48.5736 51.9944 48.7156C47.2152 48.8576 42.6708 50.82 39.2906 54.2016L27.9843 65.4937C24.4673 69.0108 22.4915 73.7809 22.4915 78.7547C22.4915 83.7285 24.4673 88.4986 27.9843 92.0156C31.5013 95.5326 36.2714 97.5085 41.2453 97.5085C46.2191 97.5085 50.9892 95.5326 54.5062 92.0156L59.1656 87.3562C59.5138 87.0076 59.9274 86.731 60.3827 86.5423C60.8379 86.3536 61.3259 86.2564 61.8187 86.2564C62.3115 86.2564 62.7995 86.3536 63.2547 86.5423C63.71 86.731 64.1235 87.0076 64.4718 87.3562ZM97.3218 22.6687C92.3937 17.7516 85.7163 14.9902 78.7546 14.9902C71.793 14.9902 65.1156 17.7516 60.1874 22.6687L55.5281 27.3328C54.825 28.0365 54.4303 28.9906 54.4308 29.9852C54.4312 30.9799 54.8268 31.9337 55.5304 32.6367C56.2341 33.3397 57.1882 33.7345 58.1829 33.734C59.1775 33.7336 60.1313 33.338 60.8343 32.6344L65.4937 27.975C69.0107 24.458 73.7808 22.4821 78.7546 22.4821C83.7284 22.4821 88.4986 24.458 92.0156 27.975C95.5326 31.492 97.5084 36.2621 97.5084 41.2359C97.5084 46.2098 95.5326 50.9799 92.0156 54.4969L80.7093 65.8125C77.3272 69.192 72.7819 71.1519 68.0027 71.2913C63.2236 71.4307 58.5717 69.7391 54.9984 66.5625C54.2525 65.9011 53.2744 65.5631 52.2792 65.6229C51.2841 65.6827 50.3535 66.1353 49.6921 66.8812C49.0308 67.6272 48.6928 68.6053 48.7526 69.6004C48.8123 70.5955 49.265 71.5261 50.0109 72.1875C55.0152 76.6363 61.5305 79.0046 68.2236 78.8077C74.9167 78.6107 81.2814 75.8635 86.0156 71.1281L97.3218 59.8219C102.242 54.8933 105.005 48.2139 105.005 41.25C105.005 34.286 102.242 27.6067 97.3218 22.6781V22.6687Z" fill="white"/>
</svg>
