<svg width="108" height="110" viewBox="0 0 108 110" fill="none" xmlns="http://www.w3.org/2000/svg">
<path d="M42.0375 3.75L39.5275 16.68C35.348 18.2207 31.4597 20.4582 28.0275 23.2975L15.6 19.015L3.63 39.735L13.58 48.385C12.7932 52.7641 12.7932 57.2484 13.58 61.6275L3.63 70.275L15.6025 90.985L28.0125 86.71C31.4454 89.5525 35.339 91.7872 39.525 93.3175L42.0375 106.25H65.96L68.4225 93.45C72.5874 91.7882 76.4804 89.5131 79.9725 86.7L92.395 90.985L104.355 70.275L94.415 61.6175C95.2119 57.246 95.2119 52.7665 94.415 48.395L104.365 39.7275L92.3925 19.0175L79.9825 23.2925C76.5483 20.4519 72.655 18.2174 68.47 16.685L65.9575 3.755L42.0375 3.75ZM53.7825 39.265C57.9605 39.339 61.9424 41.0507 64.8709 44.0315C67.7993 47.0123 69.4402 51.0238 69.4402 55.2025C69.4402 59.3812 67.7993 63.3927 64.8709 66.3735C61.9424 69.3543 57.9605 71.066 53.7825 71.14C51.6896 71.1403 49.617 70.7284 47.6833 69.9278C45.7495 69.1272 43.9924 67.9535 42.5123 66.4738C41.0321 64.9941 39.8579 63.2373 39.0566 61.3038C38.2554 59.3703 37.8428 57.2979 37.8425 55.205V55.2025C37.8425 53.1093 38.2548 51.0367 39.0559 49.1029C39.857 47.1691 41.0312 45.4121 42.5114 43.9321C43.9916 42.4521 45.7488 41.2782 47.6827 40.4775C49.6166 39.6767 51.6894 39.2647 53.7825 39.265Z" stroke="white" stroke-width="6" stroke-linecap="round" stroke-linejoin="round"/>
</svg>
