<svg width="106" height="68" viewBox="0 0 106 68" fill="none" xmlns="http://www.w3.org/2000/svg">
<path d="M101.75 0.500001H71.75C71.0079 0.499417 70.2823 0.719034 69.6651 1.13105C69.0479 1.54307 68.5668 2.12895 68.2827 2.81454C67.9986 3.50012 67.9243 4.25458 68.0693 4.9824C68.2142 5.71022 68.5718 6.37867 69.0969 6.90313L81.4485 19.25L56.75 43.9484L40.6531 27.8469C40.3049 27.4982 39.8913 27.2216 39.436 27.0329C38.9808 26.8442 38.4928 26.7471 38 26.7471C37.5072 26.7471 37.0192 26.8442 36.564 27.0329C36.1087 27.2216 35.6952 27.4982 35.3469 27.8469L1.59689 61.5969C0.893233 62.3005 0.497925 63.2549 0.497925 64.25C0.497925 65.2451 0.893233 66.1995 1.59689 66.9031C2.30054 67.6068 3.2549 68.0021 4.25001 68.0021C5.24513 68.0021 6.19948 67.6068 6.90314 66.9031L38 35.8016L54.0969 51.9031C54.4452 52.2518 54.8587 52.5284 55.314 52.7171C55.7692 52.9058 56.2572 53.0029 56.75 53.0029C57.2428 53.0029 57.7308 52.9058 58.186 52.7171C58.6413 52.5284 59.0549 52.2518 59.4031 51.9031L86.75 24.5516L99.0969 36.9031C99.6213 37.4282 100.29 37.7858 101.018 37.9307C101.745 38.0757 102.5 38.0014 103.185 37.7173C103.871 37.4333 104.457 36.9522 104.869 36.3349C105.281 35.7177 105.501 34.9921 105.5 34.25V4.25C105.5 3.25544 105.105 2.30161 104.402 1.59835C103.698 0.89509 102.745 0.500001 101.75 0.500001ZM98 25.1984L80.8016 8H98V25.1984Z" fill="white"/>
</svg>
