<svg width="58" height="58" viewBox="0 0 58 58" fill="none" xmlns="http://www.w3.org/2000/svg">
<g filter="url(#filter0_d_269_373)">
<rect x="4" y="2" width="50" height="50" rx="10" fill="white" fill-opacity="0.01" shape-rendering="crispEdges"/>
<path d="M46 17.375C46 15.5187 44.47 14 42.6 14H15.4C13.53 14 12 15.5187 12 17.375V37.625C12 39.4813 13.53 41 15.4 41H42.6C44.47 41 46 39.4813 46 37.625V17.375ZM42.6 17.375L29 25.8125L15.4 17.375H42.6ZM42.6 37.625H15.4V20.75L29 29.1875L42.6 20.75V37.625Z" fill="white"/>
<rect x="4.15" y="2.15" width="49.7" height="49.7" rx="9.85" stroke="url(#paint0_linear_269_373)" stroke-width="0.3" style="mix-blend-mode:overlay" shape-rendering="crispEdges"/>
</g>
<defs>
<filter id="filter0_d_269_373" x="0" y="0" width="58" height="58" filterUnits="userSpaceOnUse" color-interpolation-filters="sRGB">
<feFlood flood-opacity="0" result="BackgroundImageFix"/>
<feColorMatrix in="SourceAlpha" type="matrix" values="0 0 0 0 0 0 0 0 0 0 0 0 0 0 0 0 0 0 127 0" result="hardAlpha"/>
<feOffset dy="2"/>
<feGaussianBlur stdDeviation="2"/>
<feComposite in2="hardAlpha" operator="out"/>
<feColorMatrix type="matrix" values="0 0 0 0 0 0 0 0 0 0 0 0 0 0 0 0 0 0 0.25 0"/>
<feBlend mode="normal" in2="BackgroundImageFix" result="effect1_dropShadow_269_373"/>
<feBlend mode="normal" in="SourceGraphic" in2="effect1_dropShadow_269_373" result="shape"/>
</filter>
<linearGradient id="paint0_linear_269_373" x1="29" y1="2" x2="29" y2="52" gradientUnits="userSpaceOnUse">
<stop stop-color="white"/>
<stop offset="1" stop-color="white" stop-opacity="0"/>
</linearGradient>
</defs>
</svg>
