<svg width="58" height="58" viewBox="0 0 58 58" fill="none" xmlns="http://www.w3.org/2000/svg">
<g filter="url(#filter0_d_264_367)">
<rect x="4" y="2" width="50" height="50" rx="10" fill="white" fill-opacity="0.01" shape-rendering="crispEdges"/>
<path d="M9 9.865C9 8.2825 10.315 7 11.9375 7H46.0625C47.685 7 49 8.2825 49 9.865V44.135C49 45.7175 47.685 47 46.0625 47H11.9375C10.315 47 9 45.7175 9 44.135V9.865ZM21.3575 40.485V22.4225H15.355V40.485H21.3575ZM18.3575 19.955C20.45 19.955 21.7525 18.57 21.7525 16.835C21.715 15.0625 20.4525 13.715 18.3975 13.715C16.3425 13.715 15 15.065 15 16.835C15 18.57 16.3025 19.955 18.3175 19.955H18.3575ZM30.6275 40.485V30.3975C30.6275 29.8575 30.6675 29.3175 30.8275 28.9325C31.26 27.855 32.2475 26.7375 33.9075 26.7375C36.08 26.7375 36.9475 28.3925 36.9475 30.8225V40.485H42.95V30.125C42.95 24.575 39.99 21.995 36.04 21.995C32.855 21.995 31.4275 23.745 30.6275 24.9775V25.04H30.5875C30.6008 25.0191 30.6141 24.9983 30.6275 24.9775V22.4225H24.6275C24.7025 24.1175 24.6275 40.485 24.6275 40.485H30.6275Z" fill="white" fill-opacity="0.01"/>
<path d="M18.3575 19.955C20.45 19.955 21.7525 18.57 21.7525 16.835C21.715 15.0625 20.4525 13.715 18.3975 13.715C16.3425 13.715 15 15.065 15 16.835C15 18.57 16.3025 19.955 18.3175 19.955H18.3575Z" fill="white"/>
<path d="M21.3575 40.485V22.4225H15.355V40.485H21.3575Z" fill="white"/>
<path d="M30.6275 40.485V30.3975C30.6275 29.8575 30.6675 29.3175 30.8275 28.9325C31.26 27.855 32.2475 26.7375 33.9075 26.7375C36.08 26.7375 36.9475 28.3925 36.9475 30.8225V40.485H42.95V30.125C42.95 24.575 39.99 21.995 36.04 21.995C32.855 21.995 31.4275 23.745 30.6275 24.9775V25.04H30.5875L30.6275 24.9775V22.4225H24.6275C24.7025 24.1175 24.6275 40.485 24.6275 40.485H30.6275Z" fill="white"/>
<rect x="4.15" y="2.15" width="49.7" height="49.7" rx="9.85" stroke="url(#paint0_linear_264_367)" stroke-width="0.3" style="mix-blend-mode:overlay" shape-rendering="crispEdges"/>
</g>
<defs>
<filter id="filter0_d_264_367" x="0" y="0" width="58" height="58" filterUnits="userSpaceOnUse" color-interpolation-filters="sRGB">
<feFlood flood-opacity="0" result="BackgroundImageFix"/>
<feColorMatrix in="SourceAlpha" type="matrix" values="0 0 0 0 0 0 0 0 0 0 0 0 0 0 0 0 0 0 127 0" result="hardAlpha"/>
<feOffset dy="2"/>
<feGaussianBlur stdDeviation="2"/>
<feComposite in2="hardAlpha" operator="out"/>
<feColorMatrix type="matrix" values="0 0 0 0 0 0 0 0 0 0 0 0 0 0 0 0 0 0 0.25 0"/>
<feBlend mode="normal" in2="BackgroundImageFix" result="effect1_dropShadow_264_367"/>
<feBlend mode="normal" in="SourceGraphic" in2="effect1_dropShadow_264_367" result="shape"/>
</filter>
<linearGradient id="paint0_linear_264_367" x1="29" y1="2" x2="29" y2="52" gradientUnits="userSpaceOnUse">
<stop stop-color="white"/>
<stop offset="1" stop-color="white" stop-opacity="0"/>
</linearGradient>
</defs>
</svg>
