<svg width="58" height="58" viewBox="0 0 58 58" fill="none" xmlns="http://www.w3.org/2000/svg">
<g filter="url(#filter0_d_263_134)">
<rect x="4" y="2" width="50" height="50" rx="10" fill="white" fill-opacity="0.01" shape-rendering="crispEdges"/>
<path d="M28.5583 13.0001C20.6015 13.0001 14.1166 19.4526 14.1166 27.3695C14.1166 29.907 14.7869 32.372 16.0402 34.547L14 42L21.6508 39.999C23.7638 41.1445 26.1392 41.7535 28.5583 41.7535C36.5151 41.7535 43 35.301 43 27.384C43 23.5416 41.499 19.9311 38.7739 17.2196C37.4378 15.8768 35.8464 14.8121 34.0925 14.0877C32.3386 13.3632 30.4573 12.9935 28.5583 13.0001ZM28.5729 15.4216C31.7789 15.4216 34.7809 16.6686 37.0543 18.9306C38.17 20.0403 39.0545 21.3583 39.6572 22.809C40.2599 24.2596 40.5688 25.8143 40.5663 27.384C40.5663 33.967 35.1744 39.3175 28.5583 39.3175C26.4015 39.3175 24.2884 38.752 22.4523 37.65L22.0151 37.4035L17.4683 38.5925L18.6779 34.1845L18.3864 33.7205C17.1826 31.8191 16.5459 29.6168 16.5503 27.3695C16.5648 20.7866 21.9422 15.4216 28.5729 15.4216ZM23.4432 20.7286C23.21 20.7286 22.8166 20.8156 22.4814 21.1781C22.1608 21.5406 21.2136 22.4251 21.2136 24.1796C21.2136 25.9485 22.5106 27.645 22.6709 27.8915C22.8749 28.138 25.2357 31.763 28.8643 33.3C29.7241 33.6915 30.3945 33.909 30.9191 34.0685C31.7789 34.344 32.5658 34.3005 33.1925 34.2135C33.892 34.112 35.3201 33.3435 35.6261 32.5025C35.9322 31.6615 35.9322 30.951 35.8447 30.7915C35.7427 30.6465 35.5095 30.5595 35.1452 30.4C34.7809 30.197 33.003 29.327 32.6824 29.211C32.3472 29.095 32.1432 29.037 31.8663 29.385C31.6332 29.7475 30.9337 30.5595 30.7296 30.7915C30.5111 31.038 30.307 31.067 29.9573 30.893C29.5784 30.7045 28.4126 30.3275 27.0427 29.1095C25.9643 28.1525 25.2503 26.978 25.0317 26.6155C24.8568 26.2675 25.0171 26.05 25.192 25.8905C25.3523 25.731 25.5854 25.47 25.7312 25.2525C25.9206 25.0496 25.9789 24.8901 26.0955 24.6581C26.2121 24.4116 26.1538 24.2086 26.0663 24.0346C25.9789 23.8751 25.2503 22.0771 24.9442 21.3666C24.6528 20.6706 24.3613 20.7576 24.1281 20.7431C23.9241 20.7431 23.691 20.7286 23.4432 20.7286Z" fill="white"/>
<rect x="4.15" y="2.15" width="49.7" height="49.7" rx="9.85" stroke="url(#paint0_linear_263_134)" stroke-width="0.3" style="mix-blend-mode:overlay" shape-rendering="crispEdges"/>
</g>
<defs>
<filter id="filter0_d_263_134" x="0" y="0" width="58" height="58" filterUnits="userSpaceOnUse" color-interpolation-filters="sRGB">
<feFlood flood-opacity="0" result="BackgroundImageFix"/>
<feColorMatrix in="SourceAlpha" type="matrix" values="0 0 0 0 0 0 0 0 0 0 0 0 0 0 0 0 0 0 127 0" result="hardAlpha"/>
<feOffset dy="2"/>
<feGaussianBlur stdDeviation="2"/>
<feComposite in2="hardAlpha" operator="out"/>
<feColorMatrix type="matrix" values="0 0 0 0 0 0 0 0 0 0 0 0 0 0 0 0 0 0 0.25 0"/>
<feBlend mode="normal" in2="BackgroundImageFix" result="effect1_dropShadow_263_134"/>
<feBlend mode="normal" in="SourceGraphic" in2="effect1_dropShadow_263_134" result="shape"/>
</filter>
<linearGradient id="paint0_linear_263_134" x1="29" y1="2" x2="29" y2="52" gradientUnits="userSpaceOnUse">
<stop stop-color="white"/>
<stop offset="1" stop-color="white" stop-opacity="0"/>
</linearGradient>
</defs>
</svg>
