<svg width="58" height="58" viewBox="0 0 58 58" fill="none" xmlns="http://www.w3.org/2000/svg">
<g filter="url(#filter0_d_254_3422)">
<rect x="4" y="2" width="50" height="50" rx="10" fill="white" fill-opacity="0.01" shape-rendering="crispEdges"/>
<path d="M37.7708 34.8542L38.6458 39.9375C38.1042 40.2292 37.2292 40.5 36.0625 40.75C34.875 41.0208 33.4792 41.1667 31.875 41.1667C27.2708 41.0833 23.8125 39.7083 21.5 37.0833C19.125 34.4375 18 31.0833 18 27.0208C18.0833 22.2083 19.5 18.5208 22.25 15.9375C24.9167 13.3333 28.3333 12 32.4583 12C34.0208 12 35.375 12.1458 36.5 12.3958C37.625 12.6458 38.4583 12.9167 39 13.2292L37.75 18.4167L35.5833 17.7083C34.75 17.5 33.7708 17.3958 32.6667 17.3958C30.2708 17.375 28.2708 18.1458 26.7083 19.6875C25.125 21.2083 24.3333 23.5417 24.25 26.6458C24.2708 29.4792 25.0208 31.6875 26.5 33.3125C27.9792 34.9167 30.0417 35.75 32.7292 35.7708L35.5 35.5208C36.3958 35.3542 37.1458 35.125 37.7708 34.8542Z" fill="white"/>
<rect x="4.15" y="2.15" width="49.7" height="49.7" rx="9.85" stroke="url(#paint0_linear_254_3422)" stroke-width="0.3" style="mix-blend-mode:overlay" shape-rendering="crispEdges"/>
</g>
<defs>
<filter id="filter0_d_254_3422" x="0" y="0" width="58" height="58" filterUnits="userSpaceOnUse" color-interpolation-filters="sRGB">
<feFlood flood-opacity="0" result="BackgroundImageFix"/>
<feColorMatrix in="SourceAlpha" type="matrix" values="0 0 0 0 0 0 0 0 0 0 0 0 0 0 0 0 0 0 127 0" result="hardAlpha"/>
<feOffset dy="2"/>
<feGaussianBlur stdDeviation="2"/>
<feComposite in2="hardAlpha" operator="out"/>
<feColorMatrix type="matrix" values="0 0 0 0 0 0 0 0 0 0 0 0 0 0 0 0 0 0 0.25 0"/>
<feBlend mode="normal" in2="BackgroundImageFix" result="effect1_dropShadow_254_3422"/>
<feBlend mode="normal" in="SourceGraphic" in2="effect1_dropShadow_254_3422" result="shape"/>
</filter>
<linearGradient id="paint0_linear_254_3422" x1="29" y1="2" x2="29" y2="52" gradientUnits="userSpaceOnUse">
<stop stop-color="white"/>
<stop offset="1" stop-color="white" stop-opacity="0"/>
</linearGradient>
</defs>
</svg>
