<svg width="58" height="58" viewBox="0 0 58 58" fill="none" xmlns="http://www.w3.org/2000/svg">
<g filter="url(#filter0_d_254_4596)">
<rect x="4" y="2" width="50" height="50" rx="10" fill="white" fill-opacity="0.01" shape-rendering="crispEdges"/>
<path d="M29.0004 22.0895H36.1496L36.6433 16.557H29.0004V11.1543H42.548L42.4183 12.6039L41.0902 27.4922H29.0004V22.0895Z" fill="#248FF1"/>
<path d="M29.0324 36.1207L29.0086 36.1277L22.9918 34.5031L22.607 30.1942H17.1844L17.941 38.6774L29.0078 41.7488L29.0324 41.7418V36.1207Z" fill="#248FF1"/>
<path d="M35.6902 27.2637L35.0395 34.4988L29.0137 36.1254V41.7465L40.0895 38.677L40.1707 37.7641L41.1105 27.2637H35.6902Z" fill="#248FF1"/>
<path d="M29.0188 11.1543V16.557H15.9688L15.8606 15.343L15.6145 12.6039L15.4852 11.1543H29.0188ZM29.0004 22.0902V27.493H23.0594L22.9512 26.2789L22.7047 23.5398L22.5758 22.0902H29.0004Z" fill="#248FF1"/>
<rect x="4.15" y="2.15" width="49.7" height="49.7" rx="9.85" stroke="url(#paint0_linear_254_4596)" stroke-width="0.3" style="mix-blend-mode:overlay" shape-rendering="crispEdges"/>
</g>
<defs>
<filter id="filter0_d_254_4596" x="0" y="0" width="58" height="58" filterUnits="userSpaceOnUse" color-interpolation-filters="sRGB">
<feFlood flood-opacity="0" result="BackgroundImageFix"/>
<feColorMatrix in="SourceAlpha" type="matrix" values="0 0 0 0 0 0 0 0 0 0 0 0 0 0 0 0 0 0 127 0" result="hardAlpha"/>
<feOffset dy="2"/>
<feGaussianBlur stdDeviation="2"/>
<feComposite in2="hardAlpha" operator="out"/>
<feColorMatrix type="matrix" values="0 0 0 0 0 0 0 0 0 0 0 0 0 0 0 0 0 0 0.25 0"/>
<feBlend mode="normal" in2="BackgroundImageFix" result="effect1_dropShadow_254_4596"/>
<feBlend mode="normal" in="SourceGraphic" in2="effect1_dropShadow_254_4596" result="shape"/>
</filter>
<linearGradient id="paint0_linear_254_4596" x1="29" y1="2" x2="29" y2="52" gradientUnits="userSpaceOnUse">
<stop stop-color="white"/>
<stop offset="1" stop-color="white" stop-opacity="0"/>
</linearGradient>
</defs>
</svg>
