<svg width="58" height="58" viewBox="0 0 58 58" fill="none" xmlns="http://www.w3.org/2000/svg">
<g filter="url(#filter0_d_254_2726)">
<rect x="4" y="2" width="50" height="50" rx="10" fill="white" fill-opacity="0.01" shape-rendering="crispEdges"/>
<path d="M48.5312 37.7299C47.9627 37.9452 47.3349 37.9448 46.7666 37.7287C46.1983 37.5126 45.7289 37.0958 45.4471 36.557C43.677 33.9072 41.7223 31.3769 39.8436 28.7924L39.0289 27.7064C36.7918 30.7037 34.5547 33.5814 32.5131 36.568C32.2472 37.0829 31.8031 37.4835 31.2637 37.6953C30.7243 37.9071 30.1263 37.9156 29.5811 37.7191L37.9756 26.4576L30.1674 16.2818C30.7294 16.0789 31.3443 16.0761 31.9082 16.2739C32.4721 16.4717 32.9505 16.8581 33.2625 17.3678C35.076 20.0178 37.0852 22.548 39.0832 25.2305C41.0924 22.5697 43.0797 20.0285 44.9367 17.4004C45.2041 16.8938 45.6484 16.5033 46.185 16.3031C46.7217 16.1028 47.3132 16.1069 47.8471 16.3144L44.8172 20.3326C43.4598 22.1244 42.124 23.9271 40.7123 25.6756C40.5985 25.7774 40.5074 25.9021 40.4451 26.0415C40.3827 26.1809 40.3505 26.3319 40.3505 26.4847C40.3505 26.6374 40.3827 26.7884 40.4451 26.9278C40.5074 27.0672 40.5985 27.1919 40.7123 27.2937C43.3078 30.7363 45.8814 34.1896 48.5312 37.7299ZM9.46875 26.3164C9.69687 25.2305 9.83789 24.0467 10.1529 22.9391C12.0316 16.2603 19.6877 13.4801 24.9547 17.6178C28.0389 20.0396 28.81 23.4713 28.658 27.3373H11.2824C11 34.2441 15.9846 38.4142 22.3592 36.2857C23.3932 35.9158 24.3189 35.2942 25.0526 34.477C25.7864 33.6599 26.3051 32.6728 26.5619 31.6051C26.8986 30.5191 27.4416 30.3346 28.4732 30.6494C28.3034 31.9715 27.836 33.2379 27.1062 34.3533C26.3764 35.4687 25.4032 36.4041 24.2598 37.0892C22.3706 38.1224 20.2032 38.5317 18.0674 38.2587C15.9316 37.9856 13.9368 37.0441 12.3684 35.5689C10.8167 33.8243 9.87843 31.6198 9.69687 29.292C9.69687 28.9228 9.55566 28.5535 9.47969 28.206C9.4725 27.5762 9.46886 26.9463 9.46875 26.3164ZM11.3041 25.8494H27.0182C26.9203 20.8432 23.7602 17.292 19.5467 17.2596C14.8553 17.1943 11.4996 20.6693 11.2932 25.8277L11.3041 25.8494Z" fill="black"/>
<rect x="4.15" y="2.15" width="49.7" height="49.7" rx="9.85" stroke="url(#paint0_linear_254_2726)" stroke-width="0.3" style="mix-blend-mode:overlay" shape-rendering="crispEdges"/>
</g>
<defs>
<filter id="filter0_d_254_2726" x="0" y="0" width="58" height="58" filterUnits="userSpaceOnUse" color-interpolation-filters="sRGB">
<feFlood flood-opacity="0" result="BackgroundImageFix"/>
<feColorMatrix in="SourceAlpha" type="matrix" values="0 0 0 0 0 0 0 0 0 0 0 0 0 0 0 0 0 0 127 0" result="hardAlpha"/>
<feOffset dy="2"/>
<feGaussianBlur stdDeviation="2"/>
<feComposite in2="hardAlpha" operator="out"/>
<feColorMatrix type="matrix" values="0 0 0 0 0 0 0 0 0 0 0 0 0 0 0 0 0 0 0.25 0"/>
<feBlend mode="normal" in2="BackgroundImageFix" result="effect1_dropShadow_254_2726"/>
<feBlend mode="normal" in="SourceGraphic" in2="effect1_dropShadow_254_2726" result="shape"/>
</filter>
<linearGradient id="paint0_linear_254_2726" x1="29" y1="2" x2="29" y2="52" gradientUnits="userSpaceOnUse">
<stop stop-color="white"/>
<stop offset="1" stop-color="white" stop-opacity="0"/>
</linearGradient>
</defs>
</svg>
