<svg width="58" height="58" viewBox="0 0 58 58" fill="none" xmlns="http://www.w3.org/2000/svg">
<g filter="url(#filter0_d_253_386)">
<rect x="4" y="2" width="50" height="50" rx="10" fill="white" fill-opacity="0.01" shape-rendering="crispEdges"/>
<path d="M21 47C25.416 47 29 43.864 29 40V33H21C16.584 33 13 36.136 13 40C13 43.864 16.584 47 21 47Z" fill="#49E358"/>
<path d="M13 27C13 23.688 16.584 21 21 21H29V33H21C16.584 33 13 30.312 13 27Z" fill="#7224D5"/>
<path d="M13 14C13 10.136 16.584 7 21 7H29V21H21C16.584 21 13 17.864 13 14Z" fill="#EB4646"/>
<path d="M29 7H36C39.864 7 43 10.136 43 14C43 17.864 39.864 21 36 21H29V7Z" fill="#EA6B6B"/>
<path d="M43 27C43 30.312 39.864 33 36 33C32.136 33 29 30.312 29 27C29 23.688 32.136 21 36 21C39.864 21 43 23.688 43 27Z" fill="#2F7CF0"/>
<rect x="4.15" y="2.15" width="49.7" height="49.7" rx="9.85" stroke="url(#paint0_linear_253_386)" stroke-width="0.3" style="mix-blend-mode:overlay" shape-rendering="crispEdges"/>
</g>
<defs>
<filter id="filter0_d_253_386" x="0" y="0" width="58" height="58" filterUnits="userSpaceOnUse" color-interpolation-filters="sRGB">
<feFlood flood-opacity="0" result="BackgroundImageFix"/>
<feColorMatrix in="SourceAlpha" type="matrix" values="0 0 0 0 0 0 0 0 0 0 0 0 0 0 0 0 0 0 127 0" result="hardAlpha"/>
<feOffset dy="2"/>
<feGaussianBlur stdDeviation="2"/>
<feComposite in2="hardAlpha" operator="out"/>
<feColorMatrix type="matrix" values="0 0 0 0 0 0 0 0 0 0 0 0 0 0 0 0 0 0 0.25 0"/>
<feBlend mode="normal" in2="BackgroundImageFix" result="effect1_dropShadow_253_386"/>
<feBlend mode="normal" in="SourceGraphic" in2="effect1_dropShadow_253_386" result="shape"/>
</filter>
<linearGradient id="paint0_linear_253_386" x1="29" y1="2" x2="29" y2="52" gradientUnits="userSpaceOnUse">
<stop stop-color="white"/>
<stop offset="1" stop-color="white" stop-opacity="0"/>
</linearGradient>
</defs>
</svg>
