<svg width="58" height="58" viewBox="0 0 58 58" fill="none" xmlns="http://www.w3.org/2000/svg">
<g filter="url(#filter0_d_253_1090)">
<rect x="4" y="1" width="50" height="50" rx="10" fill="white" fill-opacity="0.01" shape-rendering="crispEdges"/>
<path d="M47.794 24.2606L30.7395 7.20615C30.3878 6.85411 29.9397 6.61435 29.4517 6.51724C28.9637 6.42013 28.4579 6.47004 27.9982 6.66064C27.6931 6.7871 27.4159 6.97247 27.1824 7.20615L23.6424 10.7462L28.1346 15.2384C29.1795 14.8722 30.3758 15.1224 31.2082 15.955C31.6045 16.352 31.8811 16.8525 32.0065 17.3992C32.1319 17.9459 32.101 18.5169 31.9174 19.047L36.2473 23.3768C37.2947 23.0155 38.5031 23.2485 39.3393 24.0872C39.7581 24.5059 40.0433 25.0394 40.1588 25.6202C40.2742 26.201 40.2148 26.8031 39.9879 27.3501C39.6838 28.0835 39.1008 28.6661 38.3673 28.9698C37.6337 29.2735 36.8095 29.2735 36.076 28.9698C35.7127 28.8192 35.3826 28.5987 35.1047 28.3206C34.2258 27.4417 34.0086 26.1477 34.4529 25.0649L30.4149 21.0268V31.6532C30.708 31.7982 30.9759 31.9895 31.2082 32.2196C31.7696 32.781 32.085 33.5424 32.085 34.3363C32.085 35.1302 31.7696 35.8916 31.2082 36.453C30.6468 37.0144 29.8854 37.3298 29.0915 37.3298C28.2976 37.3298 27.5362 37.0144 26.9748 36.453C26.5558 36.0346 26.2704 35.5012 26.1548 34.9204C26.0391 34.3396 26.0984 33.7376 26.3252 33.1905C26.4757 32.8273 26.6965 32.4974 26.9748 32.2196C27.2641 31.9315 27.5852 31.713 27.9551 31.5665V20.8413C27.588 20.6912 27.2547 20.4692 26.9748 20.1884C26.5545 19.7685 26.2688 19.233 26.154 18.6501C26.0392 18.0672 26.1006 17.4634 26.3303 16.9155L21.8992 12.487L10.2049 24.169C9.85284 24.5208 9.61306 24.9692 9.51588 25.4573C9.41871 25.9454 9.46851 26.4514 9.65899 26.9112C9.78558 27.2165 9.97107 27.4939 10.2049 27.7274L27.2606 44.7806C27.4941 45.0142 27.7713 45.1995 28.0764 45.3261C28.6928 45.5812 29.3853 45.5812 30.0018 45.3261C30.3069 45.1995 30.5841 45.0142 30.8176 44.7806L47.794 27.8311C48.0277 27.5976 48.2131 27.3202 48.3397 27.015C48.4662 26.7097 48.5314 26.3825 48.5315 26.052C48.5315 25.7216 48.4663 25.3943 48.3398 25.089C48.2132 24.7837 48.0278 24.5063 47.794 24.2727" fill="#F9A629"/>
<rect x="4.15" y="1.15" width="49.7" height="49.7" rx="9.85" stroke="url(#paint0_linear_253_1090)" stroke-width="0.3" style="mix-blend-mode:overlay" shape-rendering="crispEdges"/>
</g>
<defs>
<filter id="filter0_d_253_1090" x="0" y="0" width="58" height="58" filterUnits="userSpaceOnUse" color-interpolation-filters="sRGB">
<feFlood flood-opacity="0" result="BackgroundImageFix"/>
<feColorMatrix in="SourceAlpha" type="matrix" values="0 0 0 0 0 0 0 0 0 0 0 0 0 0 0 0 0 0 127 0" result="hardAlpha"/>
<feOffset dy="3"/>
<feGaussianBlur stdDeviation="2"/>
<feComposite in2="hardAlpha" operator="out"/>
<feColorMatrix type="matrix" values="0 0 0 0 0 0 0 0 0 0 0 0 0 0 0 0 0 0 0.25 0"/>
<feBlend mode="normal" in2="BackgroundImageFix" result="effect1_dropShadow_253_1090"/>
<feBlend mode="normal" in="SourceGraphic" in2="effect1_dropShadow_253_1090" result="shape"/>
</filter>
<linearGradient id="paint0_linear_253_1090" x1="29" y1="1" x2="29" y2="51" gradientUnits="userSpaceOnUse">
<stop stop-color="white"/>
<stop offset="1" stop-color="white" stop-opacity="0"/>
</linearGradient>
</defs>
</svg>
