<svg width="58" height="58" viewBox="0 0 58 58" fill="none" xmlns="http://www.w3.org/2000/svg">
<g filter="url(#filter0_d_99_97)">
<rect x="4" y="2" width="50" height="50" rx="10" fill="white" fill-opacity="0.01" shape-rendering="crispEdges"/>
<path d="M29 22.4902H21.886L21.3946 16.9848H29V11.609H15.5192L15.6481 13.0512L16.9692 27.8664H29V22.4902ZM29 36.4523L28.9762 36.459L22.9891 34.8418L22.6067 30.5547H17.2094L17.9625 38.9957L28.9754 42.0527L29 42.0461V36.4523Z" fill="#E4631B"/>
<path d="M28.9813 22.4902V27.8664H35.6012L34.9774 34.8387L28.9813 36.457V42.0504L40.0027 38.9957L40.0836 38.0875L41.3469 23.934L41.4777 22.4902H40.0293H28.9813ZM28.9813 11.609V16.9848H41.9672L42.075 15.7769L42.3203 13.0512L42.4488 11.609H28.9813Z" fill="#E4631B"/>
<rect x="4.15" y="2.15" width="49.7" height="49.7" rx="9.85" stroke="url(#paint0_linear_99_97)" stroke-width="0.3" style="mix-blend-mode:overlay" shape-rendering="crispEdges"/>
</g>
<defs>
<filter id="filter0_d_99_97" x="0" y="0" width="58" height="58" filterUnits="userSpaceOnUse" color-interpolation-filters="sRGB">
<feFlood flood-opacity="0" result="BackgroundImageFix"/>
<feColorMatrix in="SourceAlpha" type="matrix" values="0 0 0 0 0 0 0 0 0 0 0 0 0 0 0 0 0 0 127 0" result="hardAlpha"/>
<feOffset dy="2"/>
<feGaussianBlur stdDeviation="2"/>
<feComposite in2="hardAlpha" operator="out"/>
<feColorMatrix type="matrix" values="0 0 0 0 0 0 0 0 0 0 0 0 0 0 0 0 0 0 0.25 0"/>
<feBlend mode="normal" in2="BackgroundImageFix" result="effect1_dropShadow_99_97"/>
<feBlend mode="normal" in="SourceGraphic" in2="effect1_dropShadow_99_97" result="shape"/>
</filter>
<linearGradient id="paint0_linear_99_97" x1="29" y1="2" x2="29" y2="52" gradientUnits="userSpaceOnUse">
<stop stop-color="white"/>
<stop offset="1" stop-color="white" stop-opacity="0"/>
</linearGradient>
</defs>
</svg>
