<svg width="58" height="58" viewBox="0 0 58 58" fill="none" xmlns="http://www.w3.org/2000/svg">
<g filter="url(#filter0_d_253_1322)">
<rect x="4" y="2" width="50" height="50" rx="10" fill="white" fill-opacity="0.01" shape-rendering="crispEdges"/>
<path d="M45.6705 26.7061C45.6705 24.3535 44.0533 22.3744 41.882 21.809L46.7449 7.46875H22.6447L27.5191 21.8543C25.4154 22.465 23.8662 24.4102 23.8662 26.7172C23.8662 28.4137 24.7143 29.9178 26.0035 30.8451C25.4947 31.5689 24.9066 32.2363 24.2393 32.8695C22.984 34.0457 21.593 34.9504 20.0889 35.5498C18.7316 34.6338 18.1436 33.0166 18.6752 31.5689C20.7447 30.9357 22.2488 29.0018 22.2488 26.7285C22.2488 23.9352 19.9758 21.6732 17.1936 21.6732C14.4002 21.6732 12.1271 23.9465 12.1271 26.7398C12.1271 28.1195 12.6926 29.3863 13.5973 30.291C13.5182 30.4494 13.4391 30.6076 13.3598 30.7773C12.602 32.3381 11.7426 34.1023 11.4145 36.0814C10.7586 40.0396 11.833 43.2176 14.4228 45.0158C15.8818 46.0223 17.4877 46.5312 19.218 46.5312C22.1924 46.5312 25.2119 45.0385 28.1297 43.5908C30.2107 42.5617 32.3594 41.4873 34.4742 40.967C35.2547 40.7748 36.0689 40.6617 36.9285 40.5373C38.6701 40.2885 40.4684 40.0283 42.0855 39.0896C43.9742 37.9928 45.2635 36.1605 45.6367 34.057C45.9193 32.4398 45.6367 30.8113 44.9129 29.3863C45.3992 28.6059 45.6705 27.6898 45.6705 26.7061ZM43.4652 26.7061C43.4652 28.2779 42.1873 29.5559 40.6152 29.5559C39.0434 29.5559 37.7654 28.2779 37.7654 26.7061C37.7654 26.1971 37.901 25.7107 38.1385 25.2924C38.231 25.1328 38.337 24.9814 38.4553 24.8398C38.5684 24.7043 38.7041 24.5799 38.851 24.4668L38.8623 24.4555C38.9527 24.3875 39.0547 24.3197 39.1564 24.2518C39.1564 24.2518 39.1678 24.2518 39.1678 24.2404C39.2129 24.218 39.2582 24.184 39.3033 24.1613C39.3146 24.1613 39.326 24.15 39.3373 24.15C39.3826 24.1273 39.4391 24.1049 39.4957 24.0822C39.5521 24.0596 39.6088 24.0369 39.6539 24.0143C39.6652 24.0143 39.6766 24.0029 39.6879 24.0029C39.7332 23.9918 39.7783 23.9691 39.8236 23.9578C39.835 23.9578 39.8576 23.9465 39.8689 23.9465C39.9254 23.9352 39.9707 23.9238 40.0271 23.9125H40.0385L40.2082 23.8787C40.2195 23.8787 40.242 23.8787 40.2533 23.8674C40.2986 23.8674 40.3439 23.8561 40.3891 23.8561H40.4457C40.5021 23.8561 40.5588 23.8447 40.6266 23.8447H40.7736C40.8189 23.8447 40.8527 23.8447 40.898 23.8561H40.9207C41.0111 23.8674 41.1016 23.8787 41.192 23.9012C42.4812 24.1727 43.4652 25.3262 43.4652 26.7061ZM25.8 9.73066H43.5896L39.507 21.775C39.3373 21.809 39.1678 21.8656 38.998 21.9221L34.7006 13.1574L30.3916 21.8656C30.2221 21.809 30.041 21.775 29.8602 21.7412L25.8 9.73066ZM33.8861 25.7221C33.6713 24.659 33.1285 23.709 32.3594 23.0078L34.7006 18.2805L37.0641 23.1096C36.3629 23.8107 35.8541 24.7043 35.6504 25.7221H33.8861ZM28.2203 23.9352C28.2768 23.9238 28.3221 23.9125 28.3785 23.9012H28.4125C28.4578 23.8898 28.5029 23.8898 28.5482 23.8787H28.5934C28.6387 23.8787 28.6727 23.8674 28.7178 23.8674H29.159C29.2041 23.8674 29.2381 23.8787 29.2721 23.8787C29.2947 23.8787 29.3059 23.8787 29.3285 23.8898C29.3738 23.9012 29.4078 23.9012 29.4529 23.9125C29.4643 23.9125 29.4756 23.9125 29.4982 23.9238C29.5547 23.9352 29.6113 23.9465 29.6564 23.9578H29.6678C29.7131 23.9691 29.7584 23.9805 29.8035 24.0029C29.8148 24.0029 29.8262 24.0143 29.8488 24.0143C29.8828 24.0256 29.9279 24.0369 29.9619 24.0596C29.9732 24.0596 29.9846 24.0709 29.9959 24.0709C30.041 24.0936 30.0863 24.1049 30.1314 24.1273H30.1428C30.1994 24.15 30.2445 24.1727 30.2898 24.2066H30.3012C30.3465 24.2293 30.3916 24.2631 30.4369 24.2857C30.4482 24.2857 30.4482 24.2971 30.4596 24.2971C30.5047 24.3197 30.5387 24.3535 30.584 24.3762L30.5951 24.3875C30.7309 24.4893 30.8553 24.6023 30.9797 24.7154L30.991 24.7268C31.1041 24.8512 31.2172 24.9869 31.3076 25.134C31.6111 25.5979 31.7722 26.1404 31.7713 26.6947C31.7713 28.2666 30.4934 29.5445 28.9215 29.5445C27.3494 29.5445 26.0715 28.2666 26.0715 26.6947C26.0602 25.3715 26.9762 24.2518 28.2203 23.9352ZM17.0918 23.8561C18.6639 23.8561 19.9418 25.134 19.9418 26.7061C19.9418 28.2779 18.6639 29.5559 17.0918 29.5559C15.5199 29.5559 14.2418 28.2779 14.2418 26.7061C14.2418 25.134 15.5199 23.8561 17.0918 23.8561ZM43.3975 33.6611C43.1486 35.1088 42.2551 36.3754 40.9432 37.1332C39.7105 37.8457 38.1951 38.0719 36.6004 38.298C35.7297 38.4225 34.8137 38.5582 33.9314 38.773C31.5791 39.3498 29.3172 40.4807 27.1232 41.5664C24.3186 42.9574 21.6721 44.2693 19.218 44.2693C17.94 44.2693 16.7978 43.9074 15.7121 43.1498C13.224 41.4307 13.3484 38.2076 13.6426 36.4434C13.9141 34.7922 14.6717 33.2428 15.3955 31.7613C15.4406 31.6707 15.4746 31.5916 15.5199 31.5012C15.7732 31.5927 16.0344 31.6609 16.3002 31.7047C15.8705 34.1023 17.0918 36.5791 19.4668 37.8004L19.8965 38.0266L20.3602 37.857C22.3395 37.1559 24.1715 36.0135 25.7887 34.4867C26.7049 33.6273 27.4852 32.7 28.141 31.6934C28.4012 31.7387 28.6613 31.75 28.9215 31.75C31.2738 31.75 33.2529 30.1326 33.8184 27.9613H35.7184C36.2838 30.1439 38.2629 31.75 40.6152 31.75C41.5539 31.75 42.4248 31.4898 43.1713 31.0488C43.4652 31.8969 43.5557 32.7791 43.3975 33.6611Z" fill="#D72F2F"/>
<rect x="4.15" y="2.15" width="49.7" height="49.7" rx="9.85" stroke="url(#paint0_linear_253_1322)" stroke-width="0.3" style="mix-blend-mode:overlay" shape-rendering="crispEdges"/>
</g>
<defs>
<filter id="filter0_d_253_1322" x="0" y="0" width="58" height="58" filterUnits="userSpaceOnUse" color-interpolation-filters="sRGB">
<feFlood flood-opacity="0" result="BackgroundImageFix"/>
<feColorMatrix in="SourceAlpha" type="matrix" values="0 0 0 0 0 0 0 0 0 0 0 0 0 0 0 0 0 0 127 0" result="hardAlpha"/>
<feOffset dy="2"/>
<feGaussianBlur stdDeviation="2"/>
<feComposite in2="hardAlpha" operator="out"/>
<feColorMatrix type="matrix" values="0 0 0 0 0 0 0 0 0 0 0 0 0 0 0 0 0 0 0.25 0"/>
<feBlend mode="normal" in2="BackgroundImageFix" result="effect1_dropShadow_253_1322"/>
<feBlend mode="normal" in="SourceGraphic" in2="effect1_dropShadow_253_1322" result="shape"/>
</filter>
<linearGradient id="paint0_linear_253_1322" x1="29" y1="2" x2="29" y2="52" gradientUnits="userSpaceOnUse">
<stop stop-color="white"/>
<stop offset="1" stop-color="white" stop-opacity="0"/>
</linearGradient>
</defs>
</svg>
