<svg width="58" height="58" viewBox="0 0 58 58" fill="none" xmlns="http://www.w3.org/2000/svg">
<g filter="url(#filter0_d_253_626)">
<rect x="4" y="2" width="50" height="50" rx="10" fill="white" fill-opacity="0.01" shape-rendering="crispEdges"/>
<path d="M29.2904 8C29.0473 8 28.7965 8.01233 28.5378 8.03238C21.9117 8.54576 23.6694 15.4433 23.5675 17.7419C23.4483 19.4254 23.0971 20.7528 21.9211 22.3978C20.5335 24.0181 18.5862 26.6374 17.6627 29.3677C17.2268 30.6504 17.0198 31.9639 17.2127 33.205C17.1412 33.2619 17.0824 33.3328 17.0402 33.4131C16.6325 33.8263 16.3346 34.3381 16.0007 34.7066C15.6887 35.0134 15.2402 35.1182 14.751 35.3233C14.2603 35.5329 13.7193 35.738 13.3964 36.3716C13.2552 36.663 13.1831 36.979 13.1894 37.2997C13.1894 37.6065 13.2317 37.9164 13.2756 38.1261C13.3666 38.7412 13.4575 39.2484 13.3383 39.6215C12.9479 40.6698 12.8993 41.3867 13.1721 41.9094C13.445 42.4243 14.011 42.6339 14.646 42.8359C15.916 43.1442 17.6407 43.044 18.9954 43.7609C20.4473 44.4793 21.9211 44.7938 23.0971 44.4855C23.9218 44.3067 24.618 43.7702 24.9911 43.0271C25.9115 43.0224 26.9197 42.6124 28.5346 42.5121C29.6306 42.4227 31.0025 42.9238 32.5752 42.8205C32.6144 43.0271 32.6739 43.1257 32.7539 43.3339L32.7586 43.3385C33.3717 44.5379 34.5037 45.0837 35.7126 44.9896C36.9214 44.8971 38.2087 44.1633 39.2514 42.9762C40.2407 41.7968 41.8902 41.305 42.9799 40.659C43.5255 40.3523 43.9661 39.936 43.9975 39.344C44.0335 38.7273 43.6839 38.0937 42.878 37.2226V37.0731L42.8733 37.0685C42.6067 36.7601 42.4813 36.2437 42.3433 35.6409C42.21 35.0226 42.058 34.4291 41.5719 34.0283H41.5672C41.4747 33.945 41.3743 33.925 41.2724 33.8201C41.1848 33.7599 41.0814 33.7257 40.9745 33.7215C41.6503 31.7512 41.3885 29.7902 40.7033 28.0265C39.8676 25.8527 38.4063 23.9595 37.293 22.6568C36.045 21.1074 34.822 19.6397 34.8471 17.4644C34.8879 14.1467 35.2171 8.00925 29.2904 8ZM30.1198 13.2494H30.1402C30.4742 13.2494 30.7611 13.345 31.0559 13.5547C31.3538 13.7628 31.5733 14.0665 31.7426 14.3764C31.9072 14.7757 31.9903 15.084 32.0029 15.4926C32.0029 15.4618 32.0123 15.4309 32.0123 15.4001V15.562C32.0088 15.5515 32.0067 15.5406 32.006 15.5296L31.9997 15.4926C31.9966 15.8673 31.9166 16.2374 31.7646 16.581C31.6913 16.7743 31.5775 16.9503 31.4306 17.0975C31.3862 17.0728 31.3401 17.0512 31.2926 17.0327C31.1295 16.9634 30.9822 16.9341 30.8473 16.8277C30.7356 16.7839 30.6202 16.7499 30.5024 16.7259C30.5808 16.6334 30.7313 16.5209 30.7893 16.4207C30.8724 16.2233 30.9179 16.0137 30.9273 15.8009V15.7701C30.9308 15.5607 30.8985 15.3522 30.8316 15.1534C30.7611 14.9468 30.6733 14.8451 30.5447 14.64C30.413 14.5383 30.2829 14.4365 30.1261 14.4365H30.101C29.9552 14.4365 29.825 14.4828 29.6902 14.64C29.5413 14.7828 29.4308 14.9598 29.3688 15.155C29.2855 15.3508 29.2377 15.5596 29.2277 15.7716V15.8009C29.2308 15.9381 29.2402 16.0769 29.259 16.2126C28.9564 16.1093 28.5723 16.0044 28.3073 15.9011C28.2915 15.799 28.282 15.696 28.2791 15.5928V15.562C28.2668 15.155 28.3471 14.7505 28.5143 14.3779C28.6424 14.0394 28.879 13.751 29.1885 13.5562C29.4565 13.3565 29.7835 13.2498 30.1198 13.2494ZM25.4756 13.3404H25.5321C25.7547 13.3404 25.9554 13.4144 26.1577 13.5485C26.3866 13.7474 26.5716 13.9925 26.697 14.2654C26.8381 14.5722 26.9165 14.8821 26.9369 15.2937V15.2999C26.9479 15.5065 26.9463 15.6082 26.9338 15.71V15.8333C26.8868 15.8441 26.846 15.861 26.8037 15.8703C26.5653 15.9551 26.374 16.0784 26.1875 16.1786C26.2063 16.0399 26.2078 15.9011 26.1922 15.767V15.7439C26.1733 15.5388 26.1294 15.4355 26.0636 15.2305C26.0147 15.0734 25.925 14.9315 25.8033 14.8189C25.7647 14.7843 25.7194 14.7578 25.6701 14.7408C25.6208 14.7239 25.5685 14.7169 25.5164 14.7202H25.4835C25.3721 14.7295 25.2796 14.7819 25.1918 14.9237C25.0918 15.0431 25.0268 15.187 25.0037 15.34C24.9613 15.5061 24.9491 15.6784 24.9676 15.8487V15.8718C24.9864 16.08 25.0256 16.1802 25.0931 16.3868C25.1652 16.5933 25.2467 16.6951 25.3533 16.7999C25.369 16.8138 25.3847 16.8277 25.4066 16.8369C25.2969 16.9248 25.2232 16.9449 25.1307 17.0466C25.072 17.0976 25.0015 17.1336 24.9253 17.1514C24.7623 16.9585 24.6179 16.751 24.4941 16.5317C24.3459 16.2077 24.2633 15.8584 24.2511 15.5034C24.2251 15.1554 24.2677 14.8057 24.3765 14.4735C24.4629 14.1706 24.6142 13.8894 24.8202 13.6487C25.0209 13.4437 25.2279 13.3404 25.4756 13.3404ZM27.6237 15.9705C28.1442 15.9705 28.773 16.0707 29.5303 16.5856C29.9897 16.894 30.3503 17.0004 31.1797 17.3071H31.1844C31.5842 17.5168 31.8194 17.7172 31.9339 17.9223V17.7203C31.9902 17.8324 32.0215 17.955 32.0258 18.08C32.0301 18.2049 32.0074 18.3293 31.959 18.4449C31.7661 18.9228 31.1499 19.4362 30.2923 19.743V19.7461C29.8721 19.9542 29.5067 20.2595 29.0771 20.463C28.6444 20.6711 28.1552 20.9131 27.4904 20.8746C27.2516 20.8868 27.0127 20.8516 26.788 20.7713C26.6143 20.6784 26.4458 20.5765 26.2831 20.4661C25.9774 20.2579 25.7139 19.9542 25.3235 19.7492V19.7415H25.3157C24.6885 19.3622 24.3499 18.9521 24.2401 18.6469C24.1303 18.2337 24.2323 17.9223 24.5427 17.7219C24.8939 17.5137 25.1385 17.3041 25.3 17.2039C25.4631 17.0898 25.5242 17.0466 25.576 17.0019H25.5791V16.9973C25.8441 16.6859 26.2627 16.2727 26.8946 16.0707C27.1125 16.0152 27.3556 15.9705 27.6252 15.9705H27.6237ZM32.0139 19.2728C32.5752 21.4574 33.8891 24.6301 34.7342 26.1688C35.1826 26.992 36.0748 28.7264 36.462 30.8308C36.7066 30.8231 36.9795 30.8586 37.2664 30.9295C38.2793 28.3533 36.4103 25.5845 35.5589 24.8152C35.214 24.5068 35.1952 24.2987 35.3661 24.2987C36.2911 25.1219 37.5063 26.7222 37.9469 28.5491C38.1507 29.3739 38.1977 30.2511 37.9798 31.1237C38.0848 31.1669 38.1915 31.2162 38.3012 31.227C39.9193 32.0503 40.5167 32.6731 40.2298 33.5966V33.5303C40.1357 33.5257 40.0416 33.5303 39.9475 33.5303H39.9224C40.1592 32.8103 39.6371 32.2584 38.2526 31.6433C36.818 31.0266 35.6718 31.1253 35.4774 32.3602C35.4649 32.4264 35.457 32.4619 35.4492 32.5683C35.3426 32.6037 35.2312 32.65 35.1215 32.667C34.4473 33.0801 34.0835 33.6983 33.8781 34.4969C33.6743 35.3187 33.6116 36.2791 33.5567 37.3783V37.383C33.5253 37.8979 33.2901 38.6749 33.0565 39.4642C30.7046 41.1169 27.4434 41.8354 24.6713 39.9792C24.4973 39.6802 24.2855 39.4041 24.041 39.1574C23.9241 38.9661 23.7788 38.7931 23.6098 38.6441C23.8952 38.6441 24.1398 38.5978 24.3389 38.5408C24.5643 38.4379 24.7407 38.2535 24.8312 38.0258C25.0005 37.6142 24.8312 36.9513 24.2903 36.2329C23.7493 35.5129 22.8305 34.6989 21.4868 33.888C20.499 33.2713 19.9409 32.5467 19.6837 31.7358C19.425 30.9125 19.4595 30.063 19.6602 29.1997C20.0443 27.5501 21.029 25.9467 21.6577 24.94C21.8255 24.8398 21.7157 25.1482 21.018 26.4416C20.3971 27.5994 19.2306 30.2912 20.8267 32.3833C20.887 30.8569 21.2308 29.3542 21.8412 27.9494C22.7255 25.9791 24.5741 22.5473 24.7199 19.8278C24.7951 19.8833 25.0601 20.0359 25.173 20.1392C25.5148 20.3443 25.7688 20.6526 26.0981 20.8561C26.4274 21.166 26.846 21.3726 27.4716 21.3726C27.5327 21.3772 27.5892 21.3818 27.6441 21.3818C28.29 21.3818 28.7886 21.1752 29.2073 20.9686C29.662 20.7621 30.0226 20.4537 30.3675 20.352H30.3754C31.1076 20.1438 31.6846 19.7322 32.0123 19.2728H32.0139ZM35.4398 33.0832C35.4978 34.0082 35.9776 35.0026 36.8227 35.2061C37.7446 35.4127 39.0711 34.6927 39.6308 34.0267L39.9616 34.0113C40.4555 34.0005 40.8663 34.0267 41.2897 34.4245L41.2944 34.4291C41.6205 34.7359 41.7726 35.2462 41.9074 35.7796C42.0407 36.3963 42.1489 36.9821 42.5487 37.423C43.3107 38.2355 43.56 38.8198 43.5459 39.1806L43.5506 39.1698V39.1975L43.5459 39.1806C43.5224 39.5845 43.2559 39.7895 42.7651 40.0963C41.7773 40.7145 40.0275 41.194 38.9127 42.5168C37.9437 43.653 36.7647 44.2743 35.7204 44.3529C34.6793 44.4346 33.7809 44.0446 33.2525 42.9685L33.2447 42.9639C32.9154 42.3472 33.0565 41.3836 33.3325 40.3584C33.6084 39.3286 34.0035 38.2864 34.0584 37.4338C34.1164 36.3331 34.1776 35.3757 34.3642 34.6372C34.5523 33.9203 34.8471 33.4085 35.3692 33.1202L35.4398 33.0863V33.0832ZM18.4843 33.1588H18.4999C18.583 33.1588 18.6646 33.1665 18.7461 33.1803C19.3356 33.2651 19.8531 33.6937 20.3501 34.3397L21.7769 36.905L21.7816 36.9097C22.1626 37.7314 22.9638 38.55 23.6459 39.4334C24.3263 40.3553 24.8532 41.1771 24.7889 41.8539V41.8631C24.6995 43.0101 24.0363 43.633 23.025 43.858C22.0137 44.0662 20.6417 43.8611 19.2698 43.1427C17.752 42.3164 15.9489 42.4197 14.7902 42.2146C14.2117 42.1129 13.8338 41.9063 13.6566 41.5979C13.4842 41.2896 13.4795 40.6698 13.8495 39.7017V39.6955L13.8526 39.6909C14.0361 39.1759 13.8997 38.5315 13.8103 37.9673C13.7241 37.349 13.6802 36.8727 13.8777 36.5181C14.1286 36.0032 14.4986 35.9014 14.9596 35.6964C15.4205 35.4882 15.963 35.3849 16.3942 34.9718H16.3974V34.9687C16.7987 34.5555 17.0951 34.0421 17.4447 33.6768C17.7426 33.3669 18.0405 33.1588 18.4843 33.1588ZM29.709 19.1695C29.027 19.4794 28.2273 19.9943 27.3759 19.9943C26.5261 19.9943 25.8551 19.5827 25.369 19.2759C25.1275 19.0693 24.93 18.8627 24.7842 18.7594C24.527 18.5528 24.5584 18.246 24.6681 18.246C24.839 18.2707 24.8704 18.4526 24.9802 18.5544C25.1307 18.6561 25.3173 18.8627 25.5446 19.0678C26.0024 19.3761 26.6108 19.7877 27.3744 19.7877C28.1348 19.7877 29.0254 19.3761 29.5663 19.0693C29.8721 18.8612 30.2641 18.5544 30.5823 18.3493C30.8269 18.1397 30.816 17.9377 31.0198 17.9377C31.2205 17.9624 31.0731 18.1443 30.7893 18.4495C30.4415 18.7081 30.0804 18.949 29.7074 19.171L29.709 19.1695ZM28.0125 16.729V16.6951C28.0031 16.6643 28.0329 16.6303 28.058 16.618C28.174 16.5517 28.3402 16.5764 28.4656 16.6242C28.5644 16.6242 28.7165 16.7275 28.7008 16.8323C28.6914 16.9079 28.5676 16.9341 28.4892 16.9341C28.4029 16.9341 28.3449 16.8678 28.2681 16.8292C28.1866 16.8015 28.0392 16.8169 28.0125 16.729ZM27.1486 16.729C27.1172 16.8184 26.9714 16.8046 26.8883 16.8308C26.8146 16.8693 26.7535 16.9356 26.6688 16.9356C26.5904 16.9356 26.465 16.9048 26.4556 16.8308C26.4399 16.729 26.5936 16.6257 26.6908 16.6257C26.8162 16.5779 26.9793 16.5533 27.0969 16.618C27.1266 16.6319 27.1533 16.6643 27.1439 16.6951V16.7259H27.1486V16.729Z" fill="black"/>
<rect x="4.15" y="2.15" width="49.7" height="49.7" rx="9.85" stroke="url(#paint0_linear_253_626)" stroke-width="0.3" style="mix-blend-mode:overlay" shape-rendering="crispEdges"/>
</g>
<defs>
<filter id="filter0_d_253_626" x="0" y="0" width="58" height="58" filterUnits="userSpaceOnUse" color-interpolation-filters="sRGB">
<feFlood flood-opacity="0" result="BackgroundImageFix"/>
<feColorMatrix in="SourceAlpha" type="matrix" values="0 0 0 0 0 0 0 0 0 0 0 0 0 0 0 0 0 0 127 0" result="hardAlpha"/>
<feOffset dy="2"/>
<feGaussianBlur stdDeviation="2"/>
<feComposite in2="hardAlpha" operator="out"/>
<feColorMatrix type="matrix" values="0 0 0 0 0 0 0 0 0 0 0 0 0 0 0 0 0 0 0.25 0"/>
<feBlend mode="normal" in2="BackgroundImageFix" result="effect1_dropShadow_253_626"/>
<feBlend mode="normal" in="SourceGraphic" in2="effect1_dropShadow_253_626" result="shape"/>
</filter>
<linearGradient id="paint0_linear_253_626" x1="29" y1="2" x2="29" y2="52" gradientUnits="userSpaceOnUse">
<stop stop-color="white"/>
<stop offset="1" stop-color="white" stop-opacity="0"/>
</linearGradient>
</defs>
</svg>
