<svg width="58" height="58" viewBox="0 0 58 58" fill="none" xmlns="http://www.w3.org/2000/svg">
<g filter="url(#filter0_d_254_1802)">
<rect x="4" y="2" width="50" height="50" rx="10" fill="white" fill-opacity="0.01" shape-rendering="crispEdges"/>
<path fill-rule="evenodd" clip-rule="evenodd" d="M43.8049 36.8067C41.8928 36.7535 40.4094 36.9494 39.1662 37.4725C38.8082 37.6162 38.2338 37.6162 38.1865 38.0668C38.3779 38.2559 38.401 38.5652 38.5688 38.8274C38.8553 39.3029 39.358 39.9436 39.8119 40.276L41.342 41.3693C42.2744 41.9391 43.3264 42.2721 44.2348 42.8424C44.7609 43.1752 45.2867 43.6029 45.8129 43.9598C46.0809 44.1498 46.2432 44.4594 46.5781 44.5775V44.5057C46.4109 44.2926 46.3627 43.9838 46.1961 43.7451L45.4779 43.0565C44.7852 42.1299 43.9238 41.3213 42.9914 40.6567C42.2262 40.1338 40.5531 39.4211 40.2422 38.5424L40.1951 38.4891C40.7203 38.4359 41.342 38.251 41.8445 38.1084C42.658 37.8953 43.3986 37.9422 44.2348 37.7285L45.3832 37.3957V37.1826C44.9527 36.7551 44.642 36.1846 44.1881 35.7811C42.9689 34.7356 41.6291 33.7135 40.2422 32.8582C39.5012 32.3832 38.5445 32.0736 37.7557 31.6705C37.468 31.5277 36.9904 31.4565 36.8232 31.219C36.3918 30.6971 36.1533 30.0072 35.8426 29.3891L33.8822 25.2547C33.452 24.3279 33.1883 23.4012 32.6631 22.5459C30.2 18.5063 27.5217 16.0592 23.4092 13.6588C22.525 13.1598 21.473 12.9451 20.3545 12.6842L18.5615 12.5885C18.1783 12.4223 17.7961 11.9705 17.4613 11.7565C16.0984 10.901 12.5836 9.04786 11.5785 11.4902C10.933 13.0346 12.5354 14.5551 13.0793 15.3397C13.4865 15.8861 14.0117 16.5037 14.2994 17.1217C14.4602 17.5254 14.5139 17.9535 14.6816 18.3813C15.0637 19.4266 15.4227 20.5914 15.9248 21.566C16.1928 22.0651 16.4742 22.5885 16.809 23.0397C17.0004 23.3059 17.3354 23.4199 17.4066 23.8475C17.0717 24.3231 17.0486 25.0352 16.8572 25.6301C15.9961 28.3152 16.3311 31.6418 17.5502 33.6188C17.9334 34.2125 18.8363 35.5199 20.0615 35.0205C21.1375 34.5928 20.8975 33.2385 21.2082 32.0502C21.2805 31.7654 21.2324 31.5752 21.3754 31.3846V31.4379L22.3561 33.41C23.0973 34.5742 24.3889 35.7863 25.4643 36.5947C26.0377 37.0225 26.4922 37.7596 27.2092 38.0205V37.9486H27.1621C27.0184 37.7356 26.8029 37.6397 26.6117 37.4734C26.1814 37.0459 25.7033 36.5229 25.3684 36.0479C24.3646 34.7174 23.4805 33.2438 22.691 31.7233C22.308 30.9867 21.973 30.1787 21.6633 29.4422C21.5186 29.1568 21.5186 28.7285 21.2801 28.5869C20.9209 29.1088 20.3959 29.5615 20.1316 30.2027C19.6771 31.2242 19.6301 32.4838 19.4629 33.7908C19.3664 33.8147 19.4092 33.7908 19.3664 33.844C18.6021 33.6545 18.3385 32.8693 18.052 32.2047C17.3348 30.5176 17.2146 27.8088 17.8363 25.8602C18.0035 25.3611 18.7217 23.7928 18.435 23.3176C18.2904 22.866 17.8133 22.6051 17.5496 22.2483C17.2389 21.7967 16.9051 21.2268 16.6896 20.7277C16.1162 19.3963 15.8295 17.9236 15.2072 16.593C14.9195 15.975 14.418 15.3332 14.0111 14.7635C13.5566 14.1217 13.0557 13.6699 12.6967 12.91C12.5771 12.6438 12.41 12.2209 12.6012 11.9354C12.6484 11.7453 12.7447 11.6692 12.9352 11.6266C13.2457 11.3602 14.1312 11.6979 14.442 11.8395C15.3262 12.1963 16.0674 12.5287 16.8086 13.0272C17.1436 13.2647 17.5025 13.7164 17.9328 13.8358H18.4355C19.2008 14.0018 20.0609 13.8889 20.7773 14.102C22.0449 14.5067 23.1922 15.1 24.2211 15.7422C27.3529 17.7145 29.9359 20.5184 31.6807 23.8693C31.9674 24.4158 32.0869 24.9149 32.3506 25.4852C32.8533 26.65 33.475 27.8377 33.976 28.9789C34.4787 30.0957 34.9566 31.2371 35.6738 32.1637C36.0328 32.6627 37.4668 32.9236 38.1121 33.1852C38.5906 33.3983 39.3312 33.59 39.7627 33.851C40.575 34.35 41.3881 34.9203 42.1527 35.4668C42.5348 35.7512 43.7311 36.3455 43.8022 36.8195L43.8049 36.8067ZM19.4215 16.1576C19.0912 16.1547 18.762 16.1946 18.442 16.2764V16.3297H18.4891C18.6805 16.71 19.0154 16.9715 19.2543 17.3043L19.8047 18.4449L19.852 18.3918C20.1867 18.1543 20.3545 17.774 20.3545 17.2043C20.2109 17.0381 20.1873 16.8713 20.0678 16.7051C19.9242 16.4676 19.6135 16.3483 19.4215 16.1588V16.1576Z" fill="#5580D3"/>
<rect x="4.15" y="2.15" width="49.7" height="49.7" rx="9.85" stroke="url(#paint0_linear_254_1802)" stroke-width="0.3" style="mix-blend-mode:overlay" shape-rendering="crispEdges"/>
</g>
<defs>
<filter id="filter0_d_254_1802" x="0" y="0" width="58" height="58" filterUnits="userSpaceOnUse" color-interpolation-filters="sRGB">
<feFlood flood-opacity="0" result="BackgroundImageFix"/>
<feColorMatrix in="SourceAlpha" type="matrix" values="0 0 0 0 0 0 0 0 0 0 0 0 0 0 0 0 0 0 127 0" result="hardAlpha"/>
<feOffset dy="2"/>
<feGaussianBlur stdDeviation="2"/>
<feComposite in2="hardAlpha" operator="out"/>
<feColorMatrix type="matrix" values="0 0 0 0 0 0 0 0 0 0 0 0 0 0 0 0 0 0 0.25 0"/>
<feBlend mode="normal" in2="BackgroundImageFix" result="effect1_dropShadow_254_1802"/>
<feBlend mode="normal" in="SourceGraphic" in2="effect1_dropShadow_254_1802" result="shape"/>
</filter>
<linearGradient id="paint0_linear_254_1802" x1="29" y1="2" x2="29" y2="52" gradientUnits="userSpaceOnUse">
<stop stop-color="white"/>
<stop offset="1" stop-color="white" stop-opacity="0"/>
</linearGradient>
</defs>
</svg>
