<svg width="58" height="58" viewBox="0 0 58 58" fill="none" xmlns="http://www.w3.org/2000/svg">
<g filter="url(#filter0_d_254_2958)">
<rect x="4" y="2" width="50" height="50" rx="10" fill="white" fill-opacity="0.01" shape-rendering="crispEdges"/>
<path d="M29.0003 46.926C28.3792 46.926 27.7995 46.7793 27.2613 46.5225L21.7542 43.6248C20.9261 43.2213 21.3402 43.0746 21.5886 43.0013C22.7065 42.6712 22.9135 42.5978 24.0729 42.0108C24.1972 41.9374 24.3628 41.9741 24.4869 42.0475L28.7104 44.285C28.876 44.3583 29.0831 44.3583 29.2073 44.285L45.7283 35.812C45.8939 35.7387 45.9767 35.592 45.9767 35.4086V18.4991C45.9767 18.3157 45.8939 18.169 45.7283 18.0956L29.2073 9.65925C29.0417 9.58589 28.8346 9.58589 28.7104 9.65925L12.1894 18.0958C12.0238 18.1691 11.941 18.3525 11.941 18.4992V35.4086C11.941 35.5553 12.0238 35.7387 12.1894 35.812L16.7028 38.1228C19.1458 39.2231 20.6776 37.9394 20.6776 36.6556V19.9662C20.6776 19.7462 20.8847 19.5261 21.1746 19.5261H23.2863C23.5348 19.5261 23.7832 19.7095 23.7832 19.9662V36.6555C23.7832 39.5532 22.0027 41.2404 18.8972 41.2404C17.9449 41.2404 17.1996 41.2404 15.088 40.3235L10.7403 38.1228C9.66376 37.5725 9.0013 36.5455 9.0013 35.4451V18.5359C9.0013 17.4356 9.66376 16.4086 10.7403 15.8583L27.2613 7.38533C28.2964 6.87184 29.7041 6.87184 30.7392 7.38533L47.2602 15.8583C48.3367 16.4084 48.9992 17.4354 48.9992 18.5359V35.4453C48.9992 36.5456 48.3367 37.5726 47.2602 38.1228L30.7392 46.596C30.201 46.8161 29.5799 46.926 29.0003 46.926ZM34.0931 35.2984C26.8471 35.2984 25.3565 32.3642 25.3565 29.8699C25.3565 29.6498 25.5636 29.4298 25.8534 29.4298H28.0064C28.2548 29.4298 28.462 29.5765 28.462 29.7965C28.7932 31.7405 29.7455 32.6943 34.1345 32.6943C37.6126 32.6943 39.1033 31.9974 39.1033 30.3469C39.1033 29.3931 38.6893 28.6962 33.265 28.2192C28.7518 27.8158 25.9362 26.9355 25.9362 23.7445C25.9362 20.7733 28.7517 19.0127 33.4721 19.0127C38.7719 19.0127 41.3805 20.6266 41.7118 24.1478C41.7118 24.2579 41.6704 24.3679 41.5876 24.4779C41.5048 24.5513 41.3805 24.6246 41.2563 24.6246H39.1033C38.8961 24.6246 38.6893 24.4779 38.6477 24.2945C38.1509 22.2772 36.8673 21.617 33.4721 21.617C29.6629 21.617 29.2073 22.7907 29.2073 23.671C29.2073 24.7348 29.7455 25.0648 34.8798 25.6516C39.9728 26.2385 42.3742 27.0822 42.3742 30.2367C42.3328 33.4645 39.3517 35.2984 34.0931 35.2984Z" fill="#97ED6F"/>
<rect x="4.15" y="2.15" width="49.7" height="49.7" rx="9.85" stroke="url(#paint0_linear_254_2958)" stroke-width="0.3" style="mix-blend-mode:overlay" shape-rendering="crispEdges"/>
</g>
<defs>
<filter id="filter0_d_254_2958" x="0" y="0" width="58" height="58" filterUnits="userSpaceOnUse" color-interpolation-filters="sRGB">
<feFlood flood-opacity="0" result="BackgroundImageFix"/>
<feColorMatrix in="SourceAlpha" type="matrix" values="0 0 0 0 0 0 0 0 0 0 0 0 0 0 0 0 0 0 127 0" result="hardAlpha"/>
<feOffset dy="2"/>
<feGaussianBlur stdDeviation="2"/>
<feComposite in2="hardAlpha" operator="out"/>
<feColorMatrix type="matrix" values="0 0 0 0 0 0 0 0 0 0 0 0 0 0 0 0 0 0 0.25 0"/>
<feBlend mode="normal" in2="BackgroundImageFix" result="effect1_dropShadow_254_2958"/>
<feBlend mode="normal" in="SourceGraphic" in2="effect1_dropShadow_254_2958" result="shape"/>
</filter>
<linearGradient id="paint0_linear_254_2958" x1="29" y1="2" x2="29" y2="52" gradientUnits="userSpaceOnUse">
<stop stop-color="white"/>
<stop offset="1" stop-color="white" stop-opacity="0"/>
</linearGradient>
</defs>
</svg>
