<svg width="58" height="58" viewBox="0 0 58 58" fill="none" xmlns="http://www.w3.org/2000/svg">
<g filter="url(#filter0_d_254_3654)">
<rect x="4" y="2" width="50" height="50" rx="10" fill="white" fill-opacity="0.01" shape-rendering="crispEdges"/>
<path d="M36.5349 34.3436C37.9765 34.1943 39.0701 32.9516 39.0203 31.4604C38.9707 29.9692 37.7279 28.7762 36.2367 28.7762H36.1373C34.5963 28.8258 33.4033 30.1182 33.4529 31.6592C33.5027 32.4049 33.801 33.051 34.2482 33.4984C32.5582 36.8289 29.9734 39.2647 26.0961 41.3027C23.4615 42.6945 20.7275 43.1916 17.9935 42.8438C15.7566 42.5455 14.017 41.5512 12.9232 39.9109C11.3326 37.4752 11.1836 34.8406 12.5256 32.2061C13.4701 30.317 14.9613 28.9252 15.9058 28.2293C15.707 27.5832 15.4088 26.4895 15.2596 25.6942C8.05194 30.9137 8.79745 37.9723 10.9846 41.3027C12.6252 43.7881 15.9555 45.3291 19.634 45.3291C20.6281 45.3291 21.6223 45.2297 22.6164 44.9811C28.9793 43.7385 33.801 39.9606 36.5349 34.3436Z" fill="#5530EB"/>
<path d="M45.2836 28.1797C41.5058 23.7555 35.9384 21.3199 29.5758 21.3199H28.7804C28.333 20.425 27.3884 19.8285 26.3447 19.8285H26.2453C24.7043 19.8783 23.5113 21.1707 23.5609 22.7117C23.6107 24.2029 24.8533 25.3959 26.3447 25.3959H26.4441C27.5377 25.3463 28.4822 24.6504 28.8799 23.7059H29.7746C33.5523 23.7059 37.1314 24.7994 40.3625 26.9369C42.8478 28.5774 44.6375 30.7148 45.6316 33.2996C46.4767 35.3873 46.4269 37.4254 45.5322 39.1652C44.1404 41.7998 41.8041 43.2414 38.722 43.2414C36.7338 43.2414 34.8449 42.6449 33.8506 42.1975C33.3039 42.6945 32.3097 43.4899 31.6138 43.9869C33.7511 44.9811 35.9385 45.5279 38.0261 45.5279C42.7982 45.5279 46.3275 42.8934 47.6697 40.2588C49.1113 37.3758 49.0119 32.4049 45.2836 28.1797Z" fill="#5530EB"/>
<path d="M20.0316 35.1887C20.0814 36.6799 21.324 37.8729 22.8154 37.8729H22.9148C24.4556 37.823 25.6488 36.5307 25.599 34.9896C25.5494 33.4984 24.3066 32.3055 22.8154 32.3055H22.7158C22.6166 32.3055 22.4674 32.3055 22.3681 32.3553C20.3299 28.975 19.4849 25.2965 19.7832 21.3199C19.982 18.3375 20.9761 15.7525 22.716 13.6148C24.1574 11.7758 26.9412 10.8811 28.8301 10.8312C34.0992 10.7318 36.3361 17.2934 36.4851 19.9279C37.1314 20.0771 38.225 20.4252 38.9707 20.6736C38.3742 12.6211 33.4033 8.44531 28.6312 8.44531C24.1574 8.44531 20.0316 11.6764 18.3912 16.4484C16.1047 22.8111 17.5959 28.9252 20.3795 33.7471C20.131 34.0949 19.9818 34.6418 20.0316 35.1887Z" fill="#5530EB"/>
<rect x="4.15" y="2.15" width="49.7" height="49.7" rx="9.85" stroke="url(#paint0_linear_254_3654)" stroke-width="0.3" style="mix-blend-mode:overlay" shape-rendering="crispEdges"/>
</g>
<defs>
<filter id="filter0_d_254_3654" x="0" y="0" width="58" height="58" filterUnits="userSpaceOnUse" color-interpolation-filters="sRGB">
<feFlood flood-opacity="0" result="BackgroundImageFix"/>
<feColorMatrix in="SourceAlpha" type="matrix" values="0 0 0 0 0 0 0 0 0 0 0 0 0 0 0 0 0 0 127 0" result="hardAlpha"/>
<feOffset dy="2"/>
<feGaussianBlur stdDeviation="2"/>
<feComposite in2="hardAlpha" operator="out"/>
<feColorMatrix type="matrix" values="0 0 0 0 0 0 0 0 0 0 0 0 0 0 0 0 0 0 0.25 0"/>
<feBlend mode="normal" in2="BackgroundImageFix" result="effect1_dropShadow_254_3654"/>
<feBlend mode="normal" in="SourceGraphic" in2="effect1_dropShadow_254_3654" result="shape"/>
</filter>
<linearGradient id="paint0_linear_254_3654" x1="29" y1="2" x2="29" y2="52" gradientUnits="userSpaceOnUse">
<stop stop-color="white"/>
<stop offset="1" stop-color="white" stop-opacity="0"/>
</linearGradient>
</defs>
</svg>
