<svg width="58" height="58" viewBox="0 0 58 58" fill="none" xmlns="http://www.w3.org/2000/svg">
<g filter="url(#filter0_d_254_4364)">
<rect x="4" y="2" width="50" height="50" rx="10" fill="white" fill-opacity="0.01" shape-rendering="crispEdges"/>
<path fill-rule="evenodd" clip-rule="evenodd" d="M20.2109 23.4844C21.3828 18.7969 24.3127 16.4531 29 16.4531C36.0312 16.4531 36.9102 21.7266 40.4258 22.6055C42.7697 23.1916 44.8203 22.3127 46.5781 19.9688C45.4064 24.6561 42.4764 27 37.7891 27C30.7578 27 29.8789 21.7266 26.3633 20.8477C24.0193 20.2617 21.9688 21.1406 20.2109 23.4844ZM11.4219 34.0312C12.5938 29.3439 15.5234 27 20.2109 27C27.2422 27 28.1211 32.2734 31.6367 33.1523C33.9807 33.7385 36.0312 32.8596 37.7891 30.5156C36.6174 35.2029 33.6873 37.5469 29 37.5469C21.9688 37.5469 21.0898 32.2734 17.5742 31.3945C15.2305 30.8084 13.1797 31.6873 11.4219 34.0312Z" fill="#5CCEDD"/>
<rect x="4.15" y="2.15" width="49.7" height="49.7" rx="9.85" stroke="url(#paint0_linear_254_4364)" stroke-width="0.3" style="mix-blend-mode:overlay" shape-rendering="crispEdges"/>
</g>
<defs>
<filter id="filter0_d_254_4364" x="0" y="0" width="58" height="58" filterUnits="userSpaceOnUse" color-interpolation-filters="sRGB">
<feFlood flood-opacity="0" result="BackgroundImageFix"/>
<feColorMatrix in="SourceAlpha" type="matrix" values="0 0 0 0 0 0 0 0 0 0 0 0 0 0 0 0 0 0 127 0" result="hardAlpha"/>
<feOffset dy="2"/>
<feGaussianBlur stdDeviation="2"/>
<feComposite in2="hardAlpha" operator="out"/>
<feColorMatrix type="matrix" values="0 0 0 0 0 0 0 0 0 0 0 0 0 0 0 0 0 0 0.25 0"/>
<feBlend mode="normal" in2="BackgroundImageFix" result="effect1_dropShadow_254_4364"/>
<feBlend mode="normal" in="SourceGraphic" in2="effect1_dropShadow_254_4364" result="shape"/>
</filter>
<linearGradient id="paint0_linear_254_4364" x1="29" y1="2" x2="29" y2="52" gradientUnits="userSpaceOnUse">
<stop stop-color="white"/>
<stop offset="1" stop-color="white" stop-opacity="0"/>
</linearGradient>
</defs>
</svg>
